HIERARCHY
ROOT Hips
{
 OFFSET 0.000000 0.000000 0.000000
 CHANNELS 6 Xposition Yposition Zposition Yrotation Xrotation Zrotation
 JOINT Chest
 {
  OFFSET 0.000000 13.173100 -0.061900
  CHANNELS 3 Yrotation Xrotation Zrotation
  JOINT Chest2
  {
   OFFSET 0.000000 8.040800 0.126200
   CHANNELS 3 Yrotation Xrotation Zrotation
   JOINT Chest3
   {
    OFFSET 0.000000 7.994400 0.000000
    CHANNELS 3 Yrotation Xrotation Zrotation
    JOINT Chest4
    {
     OFFSET 0.000000 7.986200 0.000000
     CHANNELS 3 Yrotation Xrotation Zrotation
     JOINT Neck
     {
      OFFSET 0.000000 12.259400 0.000000
      CHANNELS 3 Yrotation Xrotation Zrotation
      JOINT Head
      {
       OFFSET 0.000000 7.518700 0.267100
       CHANNELS 3 Yrotation Xrotation Zrotation
       End Site
       {
        OFFSET 0.000000 13.617700 0.141000
       }
      }
     }
     JOINT RightCollar
     {
      OFFSET -2.983800 8.314300 0.000000
      CHANNELS 3 Yrotation Xrotation Zrotation
      JOINT RightShoulder
      {
       OFFSET -16.133400 0.000000 0.000000
       CHANNELS 3 Yrotation Xrotation Zrotation
       JOINT RightElbow
       {
        OFFSET 0.000000 -29.822100 0.000000
        CHANNELS 3 Yrotation Xrotation Zrotation
        JOINT RightWrist
        {
         OFFSET 0.000000 -24.437700 0.010900
         CHANNELS 3 Yrotation Xrotation Zrotation
         End Site
         {
          OFFSET 0.000000 -18.312300 0.000000
         }
        }
       }
      }
     }
     JOINT LeftCollar
     {
      OFFSET 2.983800 8.314300 0.000000
      CHANNELS 3 Yrotation Xrotation Zrotation
      JOINT LeftShoulder
      {
       OFFSET 16.133400 0.000000 0.000000
       CHANNELS 3 Yrotation Xrotation Zrotation
       JOINT LeftElbow
       {
        OFFSET 0.000000 -29.822100 0.000000
        CHANNELS 3 Yrotation Xrotation Zrotation
        JOINT LeftWrist
        {
         OFFSET 0.000000 -24.437700 0.010900
         CHANNELS 3 Yrotation Xrotation Zrotation
         End Site
         {
          OFFSET 0.000000 -18.312300 0.000000
         }
        }
       }
      }
     }
    }
   }
  }
 }
 JOINT RightHip
 {
  OFFSET -11.206700 0.306200 0.030900
  CHANNELS 3 Yrotation Xrotation Zrotation
  JOINT RightKnee
  {
   OFFSET 0.000000 -57.334900 0.009400
   CHANNELS 3 Yrotation Xrotation Zrotation
   JOINT RightAnkle
   {
    OFFSET 0.000000 -43.376200 0.036600
    CHANNELS 3 Yrotation Xrotation Zrotation
    JOINT RightToe
    {
     OFFSET 0.000000 -10.035500 18.363100
     CHANNELS 3 Yrotation Xrotation Zrotation
     End Site
     {
      OFFSET 0.000000 -1.618500 7.239000
     }
    }
   }
  }
 }
 JOINT LeftHip
 {
  OFFSET 11.206700 0.306200 0.030900
  CHANNELS 3 Yrotation Xrotation Zrotation
  JOINT LeftKnee
  {
   OFFSET 0.000000 -57.334900 0.009400
   CHANNELS 3 Yrotation Xrotation Zrotation
   JOINT LeftAnkle
   {
    OFFSET 0.000000 -43.376200 0.036600
    CHANNELS 3 Yrotation Xrotation Zrotation
    JOINT LeftToe
    {
     OFFSET 0.000000 -10.035500 18.363100
     CHANNELS 3 Yrotation Xrotation Zrotation
     End Site
     {
      OFFSET 0.000000 -1.618500 7.239000
     }
    }
   }
  }
 }
}
MOTION
Frames: 5
Frame Time: 0.008333
-96.962294 67.021828 88.122193 173.614883 -37.049241 -4.270837 2.554413 19.164303 2.827704 0.230891 2.337248 0.321253 0.387149 3.845315 0.534099 1.987220 16.638905 2.519468 2.446467 17.561663 -0.671824 4.723620 -3.127927 -2.141869 -4.985596 2.814003 -3.678724 -2.812264 -2.520134 7.478393 169.450577 -86.554720 -158.111113 -1.998838 -0.944696 -1.859366 -2.671245 2.209114 -0.208240 8.375888 -0.080757 1.640057 126.774650 -80.033028 -143.489350 -5.301500 -4.795572 9.385349 -2.014405 -45.113800 4.997033 -87.716759 85.831879 -83.319028 -1.007195 -3.182272 0.903132 0.365482 -0.010842 0.672858 -4.486929 -40.272552 5.709802 72.681518 82.474321 62.991842 -5.043494 -12.324042 7.714953 0.105150 -0.063826 0.157499
-96.916504 66.988221 88.140868 173.684443 -37.086354 -4.206904 2.496162 19.215295 2.743304 0.213035 2.333783 0.316274 0.395415 3.847382 0.547642 1.960183 16.644855 2.543150 2.476616 17.597453 -0.709421 4.785827 -3.044278 -2.214011 -5.013793 2.876600 -3.645081 -2.789773 -2.541561 7.408216 167.244690 -86.372178 -155.899827 -1.904496 -0.626110 -1.971667 -2.705602 2.223485 -0.183721 8.375228 -0.147764 1.683589 127.563472 -80.102173 -144.189668 -5.379215 -4.621374 9.153418 -1.958502 -45.334769 5.048531 -91.567766 85.283819 -87.205466 -0.925446 -2.920303 0.894014 0.522182 -0.369252 0.654039 -4.491178 -40.253619 5.609539 72.808693 82.423699 63.118147 -5.062063 -12.343077 7.687922 0.104833 -0.021769 0.111148
-96.853710 66.952369 88.165107 173.739154 -37.078681 -4.231443 2.482947 19.213914 2.758170 0.194667 2.333442 0.312828 0.403624 3.846543 0.560663 1.937622 16.643019 2.613474 2.483808 17.638675 -0.788914 4.840317 -2.968331 -2.280662 -5.028790 2.887014 -3.712537 -2.820722 -2.458551 7.397417 165.950220 -86.153087 -154.555748 -1.756935 -0.233054 -2.083804 -2.734015 2.230948 -0.238078 8.369308 -0.192474 1.729377 128.720799 -80.183329 -145.256246 -5.472435 -4.406371 8.871759 -2.116757 -45.540362 5.291721 -94.104819 84.733752 -89.829562 -0.698237 -2.836208 0.960110 0.538818 -0.512992 0.547374 -4.564490 -40.271844 5.634886 72.989234 82.373013 63.300523 -5.036808 -12.407008 7.681613 0.040667 0.051314 0.056107
-96.786563 66.924791 88.179680 173.830094 -37.091337 -4.328445 2.452214 19.228973 2.821817 0.226699 2.335077 0.337388 0.367667 3.846021 0.552712 1.910655 16.646828 2.639092 2.505888 17.675217 -0.820519 4.890175 -2.898092 -2.344628 -5.036276 2.897594 -3.736081 -2.846548 -2.416672 7.373835 165.074640 -85.969535 -153.638936 -1.594464 0.238512 -2.198825 -2.760002 2.235569 -0.251973 8.368101 -0.254415 1.789813 129.851447 -80.249992 -146.287961 -5.575855 -4.151367 8.547980 -2.391869 -45.647384 5.574234 -95.648995 84.299998 -91.456769 -0.400339 -2.888190 1.075395 0.432874 -0.506767 0.380007 -4.748741 -40.259466 5.753781 73.248163 82.325776 63.518845 -4.985081 -12.469939 7.658783 -0.050784 0.112955 0.022529
-96.728255 66.906422 88.181056 173.948167 -37.130442 -4.440840 2.385014 19.272337 2.873771 0.244986 2.330859 0.356215 0.360843 3.851292 0.559323 1.882391 16.656510 2.662992 2.526695 17.710421 -0.850795 4.937279 -2.830467 -2.405697 -5.038665 2.921208 -3.737882 -2.856385 -2.440521 7.325598 164.507287 -85.828291 -153.052036 -1.420084 0.778996 -2.322380 -2.832726 2.249398 -0.207889 8.420734 -0.343078 1.800546 130.827925 -80.298745 -147.165208 -5.688432 -3.864487 8.188942 -2.640359 -45.664407 5.759630 -96.716918 84.073289 -92.556455 -0.127323 -3.049129 1.186460 0.247695 -0.398848 0.209861 -4.893818 -40.217127 5.833245 73.412946 82.297175 63.680012 -4.951492 -12.518020 7.650925 -0.120390 0.156172 -0.006944
